<?xml version="1.0" encoding="utf-8"?>
<!-- Svg Vector Icons : http://www.onlinewebfonts.com/icon -->
<!DOCTYPE svg PUBLIC "-//W3C//DTD SVG 1.1//EN" "http://www.w3.org/Graphics/SVG/1.1/DTD/svg11.dtd">
<svg version="1.1" xmlns="http://www.w3.org/2000/svg" xmlns:xlink="http://www.w3.org/1999/xlink" x="0px" y="0px" viewBox="0 0 1000 1000" enable-background="new 0 0 1000 1000" xml:space="preserve">
<metadata> Svg Vector Icons : http://www.onlinewebfonts.com/icon </metadata>
<g><g transform="translate(0.000000,511.000000) scale(0.100000,-0.100000)"><path d="M100,110v-4900h4900h4900V110v4900H5000H100V110z M4795.8,3899.8c0-484.9-7.7-701.8-28.1-701.8c-15.3,0-81.7,53.6-145.5,120c-71.5,68.9-199.1,155.7-311.4,209.3c-178.6,84.2-209.3,91.9-433.9,91.9c-216.9,0-257.8-7.6-395.6-74c-206.7-102.1-403.2-303.7-505.3-518.1c-74-155.7-81.7-196.5-81.7-403.2c0-206.7,10.2-247.6,86.8-413.4c104.6-224.6,313.9-436.4,530.8-538.5c127.6-58.7,181.2-68.9,393-68.9c229.7,0,252.7,5.1,436.4,97c127.6,61.3,232.2,135.3,296,209.3c56.2,63.8,107.2,114.8,117.4,114.8c7.7,0,15.3-385.4,15.3-855V314.2h-992.8c-987.7,0-990.2,0-1077-58.7c-176.1-120-255.2-326.7-201.6-525.7c15.3-58.7,48.5-125,71.5-145.4c23-20.4,89.3-74,142.9-120c130.2-107.2,194-247.5,194-436.4c0-222-45.9-342-181.2-477.2c-199.1-201.6-484.9-229.7-755.4-74c-188.9,107.2-268,252.7-283.3,507.9c-10.2,163.3-2.6,214.4,40.8,301.1c48.5,94.4,242.5,288.4,288.4,288.4c35.7,0,84.2,165.9,81.7,283.3c-2.5,150.6-89.3,319-209.3,398.1c-84.2,56.1-102.1,58.7-732.5,58.7H508.3v2143.8v2143.7h2143.7h2143.7V3899.8z M9491.7,2457.9V314.2h-855h-854.9v153.1c0,84.2,10.2,153.1,23,153.1c12.8,0,86.8,58.7,165.9,130.2c99.5,91.9,171,188.8,237.3,324.1c91.9,186.3,97,204.2,97,449.2c0,227.1-7.7,275.6-68.9,403.2c-193.9,416-655.9,684-1061.7,612.5c-352.2-58.7-653.3-285.8-814.1-612.5c-63.8-132.7-71.4-171-71.4-413.4c0-242.4,7.6-280.7,74-421.1c48.5-102.1,137.8-216.9,262.9-336.9C6809.4,577,6812,569.4,6812,444.3V314.2h-816.7h-816.7v921.3v923.8l-109.7,107.2c-191.4,191.4-464.5,214.4-617.6,51c-40.8-43.4-97-109.7-120-145.5c-114.8-173.5-477.2-229.7-722.2-112.3c-153.1,71.5-196.5,117.4-270.5,283.3c-43.4,99.5-53.6,155.7-43.4,290.9c28.1,372.6,252.7,589.5,615,589.5c183.8,0,293.5-58.7,479.8-255.2l168.4-178.6h163.3c140.4,0,183.7,12.8,283.3,74c199.1,127.6,199.1,127.6,199.1,985.1v752.9h2143.8h2143.8V2457.9z M7460.2,2123.6c275.6-76.6,426.2-273.1,444.1-581.9c15.3-283.3-30.6-365-349.6-609.9c-40.8-30.6-99.5-107.2-130.2-171c-45.9-97-53.6-150.6-48.5-316.5c10.2-178.6,20.4-214.4,91.9-313.9c43.4-58.7,127.6-135.3,188.8-165.9c104.6-58.7,125.1-58.7,972.4-58.7h862.6v-2143.7v-2143.8H7335.2H5178.7v497.7c0,561.5-15.3,620.2-191.4,773.3c-112.3,99.5-171,114.8-393,102.1c-204.2-10.2-342-89.3-431.3-245c-107.2-191.4-268-285.8-492.6-285.8c-446.6,0-709.5,336.9-597.2,770.7c76.6,301.2,270.5,454.3,574.2,454.3c204.2,0,344.5-58.7,446.6-188.9c188.9-237.3,306.3-342,421.1-372.6c234.8-63.8,469.6,28.1,604.8,234.8l71.5,107.2l7.7,1219.9l7.6,1219.9h811.6c798.8,0,811.6,0,923.8,58.7C7003.4-2.3,7087.6,74.3,7131,133c66.3,94.4,76.6,135.3,86.8,308.8c5.1,168.4-2.6,222-48.5,319c-30.6,63.8-89.3,140.4-130.2,171c-301.2,232.2-354.7,319-354.7,594.6C6684.4,1975.6,7031.4,2243.5,7460.2,2123.6z M1682.3-122.2c0-17.9-53.6-86.8-117.4-155.7s-153.1-201.6-196.5-296c-74-155.7-81.7-191.4-81.7-426.2c0-237.3,5.1-268,84.2-426.2c94.4-191.4,313.9-413.4,495.1-502.8c487.4-234.8,1097.4,0,1360.3,520.6c71.5,140.4,76.6,173.5,76.6,421.1c0,242.5-7.7,280.7-71.5,416c-40.8,81.7-135.3,214.4-211.8,296.1c-76.6,81.6-137.8,155.7-137.8,165.9c0,7.7,431.3,15.3,957,15.3h957l-5.1-1191.8l-7.7-1194.4l-94.4-7.7c-84.2-7.6-99.5,2.5-168.4,104.6c-112.3,163.3-270.5,293.5-461.9,382.8c-153.1,74-191.4,81.7-423.6,81.7c-229.7,0-270.5-7.7-408.3-74c-296-145.4-520.6-449.2-571.7-770.7c-76.6-487.5,242.4-982.6,735-1145.9c370-122.5,893.2,74,1102.5,410.9c45.9,76.6,63.8,86.8,165.9,86.8h112.3v-484.9v-484.9h-2131h-2131v2143.8V-94.2h587C1519-94.2,1682.3-101.8,1682.3-122.2z"/></g></g>
</svg>