<?xml version="1.0" encoding="utf-8"?>
<!-- Svg Vector Icons : http://www.onlinewebfonts.com/icon -->
<!DOCTYPE svg PUBLIC "-//W3C//DTD SVG 1.1//EN" "http://www.w3.org/Graphics/SVG/1.1/DTD/svg11.dtd">
<svg version="1.1" xmlns="http://www.w3.org/2000/svg" xmlns:xlink="http://www.w3.org/1999/xlink" x="0px" y="0px" viewBox="0 0 1000 1000" enable-background="new 0 0 1000 1000" xml:space="preserve">
<metadata> Svg Vector Icons : http://www.onlinewebfonts.com/icon </metadata>
<g><g transform="translate(0.000000,511.000000) scale(0.100000,-0.100000)"><path d="M3915,3875.4C3319.3,3449.4,2216.6,2660.3,1464,2122L100,1144.7l109.7-156.8c60.1-86.2,115-162,122.8-164.6c7.8-5.2,143.7,83.6,303.1,196c156.8,112.4,295.3,206.4,305.7,206.4c13.1,0,20.9-1269.9,20.9-2822.1v-2822.1h4050.2h4050.2v2822.1c0,1552.2,10.4,2822.1,20.9,2822.1c18.3,0,96.7-52.3,480.8-331.9l120.2-88.8l120.2,164.6c88.8,125.4,109.7,172.5,86.2,196c-47,41.8-4828.9,3459.7-4862.9,3472.7C5012.5,4643.6,4510.8,4301.3,3915,3875.4z M6857.3,2830.1l1813.5-1296.1l-5.2-2762l-7.8-2759.4H5012.5H1367.3l-7.8,2759.4l-5.2,2762l1808.2,1293.5C4158,3540.9,4989,4123.6,5007.3,4123.6C5025.6,4126.2,5859.1,3543.5,6857.3,2830.1z"/><path d="M4631,2328.4c-334.5-117.6-601-350.2-739.5-645.4c-350.1-736.9,36.6-1546.9,846.6-1774.2c120.2-34,54.9-36.6-734.3-39.2c-836.2-2.6-867.5-5.2-935.5-57.5c-149-117.6-146.3-91.5-146.3-1499.9c0-1429.3-2.6-1400.6,164.6-1502.5c81-49.6,143.7-52.3,1925.8-52.3c1782.1,0,1844.8,2.6,1925.8,52.3c167.2,101.9,164.6,70.6,164.6,1510.3v1303.9l-60.1,88.9C6940.9-135.7,6933.1-133,6005.5-133l-849.2,2.6l214.3,70.5C5736.3,62.9,5995,285,6144,603.8c292.7,627.1,28.8,1361.4-598.4,1659.3c-193.4,94.1-222.1,99.3-493.9,107.1C4827,2375.5,4735.5,2365,4631,2328.4z M5307.8,1915.6c167.2-54.9,386.7-258.7,465.1-433.8c91.5-209,88.9-504.3-10.4-705.5c-143.7-292.7-425.9-470.3-750-470.3c-240.4,0-405,67.9-577.5,237.8c-331.8,329.2-344.9,817.9-31.3,1157.6C4644.1,1957.4,4955,2030.5,5307.8,1915.6z M6684.9-1687.8v-1162.8H5012.5H3340.2v1162.8V-525h1672.3h1672.4V-1687.8z"/></g></g>
</svg>