<?xml version="1.0" encoding="utf-8"?>
<!-- Svg Vector Icons : http://www.onlinewebfonts.com/icon -->
<!DOCTYPE svg PUBLIC "-//W3C//DTD SVG 1.1//EN" "http://www.w3.org/Graphics/SVG/1.1/DTD/svg11.dtd">
<svg version="1.1" xmlns="http://www.w3.org/2000/svg" xmlns:xlink="http://www.w3.org/1999/xlink" x="0px" y="0px" viewBox="0 0 1000 1000" enable-background="new 0 0 1000 1000" xml:space="preserve">
<metadata> Svg Vector Icons : http://www.onlinewebfonts.com/icon </metadata>
<g><path d="M914.2,218c-168.5-43.8-268.7-92.6-323-125.9c-57.3-35.1-76.9-60.6-78-62L499.9,10l-13.6,20.1c-1,1.3-20.5,26.9-77.9,62C354.1,125.3,254,174.2,85.4,218l-12.2,3.2l-0.1,12.6c-0.1,11.7-2.4,287.7,61.2,410c27.8,53.4,63.9,104.7,107.4,152.6c34.7,38.2,74.1,74.3,117.2,107.3c38.3,29.4,72.5,50.8,94.5,63.6c12.5,7.3,22.5,12.6,28.6,15.8c11.2,5.8,13.2,6.9,17.1,7c0.3,0,0.6,0,0.9,0c4.2,0,7.1-1.7,11.2-4c1.9-1.1,5-2.9,9.1-5.3c7.1-4.2,18.6-11.2,32.9-20.3c25-16,63.5-41.8,104.5-74c46.3-36.3,86.4-73,119.2-109.3c41.5-45.9,71.5-91.2,89.1-134.8c51.2-126.7,60.2-396.4,60.6-407.8l0.4-13.2L914.2,218z M835.3,629.9c-29,71.6-96.7,150.7-196,228.9c-63.2,49.8-120.3,84.4-140.1,96c-17.9-9.2-66-35.5-122.7-79.3c-64.3-49.6-153.4-132.7-212.9-247c-52.5-100.9-57.2-326.2-57.5-381.8C363.9,178,466.4,97.4,499.8,64.3C533.1,97.4,635.6,177.9,893,246.5C890.5,302.6,878.2,524,835.3,629.9z"/><path d="M388.5,353.3c0,49.2,36,90.2,83,98.1v291.3h33v0h90.2v-33h-90.2v-61.8H591v-33h-86.5V451.5c47-7.9,83-48.9,83-98.1c0-54.9-44.6-99.5-99.5-99.5C433.1,253.8,388.5,298.5,388.5,353.3z M554.4,353.3c0,36.6-29.8,66.5-66.5,66.5c-36.6,0-66.5-29.8-66.5-66.5s29.8-66.5,66.5-66.5C524.6,286.9,554.4,316.7,554.4,353.3z"/></g>
</svg>